<svg width="16" height="16" viewBox="0 0 16 16" fill="none" xmlns="http://www.w3.org/2000/svg">
<rect y="-0.00012207" width="16" height="16" rx="8" fill="black"/>
<path d="M13.5 9.79078C13.5 11.4078 12.612 12.2858 10.3854 12.2858H3.5V3.71436H10.1799C12.3204 3.71436 13.1753 4.56708 13.1753 5.93143C13.1753 6.86627 12.7247 7.40948 11.9957 7.62424V7.69372C12.8241 7.90217 13.5 8.42011 13.5 9.79078ZM10.4317 6.29779C10.4317 5.74194 10.1137 5.50191 9.47084 5.50191H6.01822V7.09998H9.46422C10.1137 7.09998 10.4317 6.85363 10.4317 6.29779ZM10.7366 9.59497C10.7366 8.97596 10.4251 8.68541 9.63651 8.68541H6.01822V10.5109H9.63651C10.4185 10.5045 10.7366 10.214 10.7366 9.59497Z" fill="white"/>
</svg>
