<svg width="16" height="16" viewBox="0 0 16 16" fill="none" xmlns="http://www.w3.org/2000/svg">
<rect y="-0.00012207" width="16" height="16" rx="3" fill="white"/>
<path d="M14 9.96984C14 11.7486 13.0232 12.7143 10.5739 12.7143H3V3.28577H10.3479C12.7025 3.28577 13.6428 4.22376 13.6428 5.72455C13.6428 6.75287 13.1471 7.35041 12.3453 7.58664V7.66307C13.2565 7.89236 14 8.4621 14 9.96984ZM10.6249 6.12754C10.6249 5.51611 10.275 5.25208 9.56793 5.25208H5.77005V7.00995H9.56064C10.275 7.00995 10.6249 6.73897 10.6249 6.12754ZM10.9602 9.75445C10.9602 9.07353 10.6176 8.75392 9.75017 8.75392H5.77005V10.7619H9.75017C10.6103 10.755 10.9602 10.4354 10.9602 9.75445Z" fill="black"/>
</svg>
