<svg width="569" height="68" viewBox="0 0 569 68" fill="none" xmlns="http://www.w3.org/2000/svg">
<path d="M49.4938 32.6855C54.9702 29.856 58.0735 24.9273 58.0735 18.812C58.0735 8.95457 49.8589 2.10912 33.0647 2.10912H0.389099V66H34.8902C52.0495 66 61.1767 59.5197 61.1767 48.4757C61.1767 40.7175 56.7044 35.2411 49.4938 32.6855ZM30.6916 15.1611C36.7156 15.1611 39.8189 17.2604 39.8189 21.2764C39.8189 25.3837 36.7156 27.4829 30.6916 27.4829H18.2786V15.1611H30.6916ZM33.4298 52.948H18.2786V39.9873H33.4298C39.6364 39.9873 42.9222 42.0866 42.9222 46.4677C42.9222 50.8488 39.6364 52.948 33.4298 52.948Z" fill="black"/>
<path d="M83.863 52.0353V40.3524H112.249V26.844H83.863V16.0738H116.082V2.10912H65.9735V66H117.269V52.0353H83.863Z" fill="black"/>
<path d="M165.815 2.10912V36.1538L137.611 2.10912H122.734V66H140.441V31.9553L168.644 66H183.521V2.10912H165.815Z" fill="black"/>
<path d="M215.071 67.2778C234.056 67.2778 243.366 57.7855 243.366 46.6502C243.366 23.1018 207.13 30.4037 207.13 20.6375C207.13 17.4429 209.869 14.8873 217.444 14.8873C223.012 14.8873 229.036 16.5302 235.151 19.816L240.719 6.39893C234.421 2.74803 225.841 0.831299 217.535 0.831299C198.551 0.831299 189.241 10.1411 189.241 21.5502C189.241 45.2811 225.567 37.888 225.567 48.0193C225.567 51.1226 222.647 53.2218 215.162 53.2218C207.769 53.2218 199.737 50.6662 194.078 46.924L188.146 60.2498C194.17 64.4484 204.575 67.2778 215.071 67.2778Z" fill="black"/>
<path d="M282.107 67.2778C302.552 67.2778 317.612 53.2218 317.612 34.0546C317.612 14.8873 302.552 0.831299 282.107 0.831299C261.662 0.831299 246.602 14.8873 246.602 34.0546C246.602 53.2218 261.662 67.2778 282.107 67.2778ZM282.107 52.3091C272.432 52.3091 264.857 45.0986 264.857 34.0546C264.857 23.0106 272.432 15.8 282.107 15.8C291.782 15.8 299.358 23.0106 299.358 34.0546C299.358 45.0986 291.782 52.3091 282.107 52.3091Z" fill="black"/>
<path d="M366.508 2.10912V36.1538L338.304 2.10912H323.427V66H341.134V31.9553L369.337 66H384.214V2.10912H366.508Z" fill="black"/>
<path d="M414.396 66H462.954V51.6702H432.468V2.10912H414.396V66Z" fill="black"/>
<path d="M469.192 66H487.264V2.10912H469.192V66Z" fill="black"/>
<path d="M568.941 66L568.759 2.10912H553.881L531.976 38.9833L509.523 2.10912H494.645V66H511.348V33.0506L527.686 59.7022H535.718L552.147 32.1378L552.33 66H568.941Z" fill="black"/>
</svg>
